ISO-10303-21;
HEADER;
FILE_DESCRIPTION(('ViewDefinition[DesignTransferView]'),'2;1');
FILE_NAME('/dev/null','2026-09-13T23:43:47+00:00',(''),(''),'IfcOpenShell 0.8.5','IfcOpenShell 0.8.5','Nobody');
FILE_SCHEMA(('IFC4'));
ENDSEC;
DATA;
#1=IFCPROJECT('0RI9tu0XXCTBy57ILojhnA',$,'Eureka Residence',$,$,$,$,(#10),#5);
#2=IFCSIUNIT(*,.LENGTHUNIT.,$,.METRE.);
#3=IFCSIUNIT(*,.AREAUNIT.,$,.SQUARE_METRE.);
#4=IFCSIUNIT(*,.VOLUMEUNIT.,$,.CUBIC_METRE.);
#5=IFCUNITASSIGNMENT((#3,#4,#2));
#6=IFCCARTESIANPOINT((0.,0.,0.));
#7=IFCDIRECTION((0.,0.,1.));
#8=IFCDIRECTION((1.,0.,0.));
#9=IFCAXIS2PLACEMENT3D(#6,#7,#8);
#10=IFCGEOMETRICREPRESENTATIONCONTEXT($,'Model',3,1.0000000000000001E-05,#9,$);
#11=IFCGEOMETRICREPRESENTATIONSUBCONTEXT('Body','Model',*,*,*,*,#10,$,.MODEL_VIEW.,$);
#12=IFCSITE('2VBaXBN1P52eDMRn5xSh1B',$,'Site',$,$,$,$,$,$,$,$,$,$,$);
#13=IFCBUILDING('1lCS8SV3z8rAIMv_pm0lnK',$,'Eureka House',$,$,$,$,$,$,$,$,$);
#14=IFCBUILDINGSTOREY('1JcO7UMgr6UQSctYpiYtFT',$,'Second Floor',$,$,$,$,$,$,$);
#15=IFCRELAGGREGATES('0BQejhTo99qQzz4GrvLCmI',$,$,$,#1,(#12));
#16=IFCRELAGGREGATES('3iw7TzA0L6YOZ72dGoendQ',$,$,$,#12,(#13));
#17=IFCRELAGGREGATES('0XEP$iwGLAKQWlHcYYRl5W',$,$,$,#13,(#14));
#18=IFCSLAB('31bs8ipzb9RuG3iEDmMp1M',$,'Slab - Family Room',$,$,#38,#27,$,.FLOOR.);
#19=IFCCARTESIANPOINT((0.,0.));
#20=IFCAXIS2PLACEMENT2D(#19,$);
#21=IFCRECTANGLEPROFILEDEF(.AREA.,$,#20,4.8514101600000004,3.6322101600000005);
#22=IFCCARTESIANPOINT((0.,0.,0.));
#23=IFCAXIS2PLACEMENT3D(#22,$,$);
#24=IFCDIRECTION((0.,0.,1.));
#25=IFCEXTRUDEDAREASOLID(#21,#23,#24,0.20000000000000001);
#26=IFCSHAPEREPRESENTATION(#11,'Body','SweptSolid',(#25));
#27=IFCPRODUCTDEFINITIONSHAPE($,$,(#26));
#33=IFCRELCONTAINEDINSPATIALSTRUCTURE('2TZymgWH55I9fznjxDb80p',$,$,$,(#1264,#179,#1222,#1198,#159,#575,#1156,#139,#489,#962,#18,#1114,#119,#339,#790,#1072,#359,#99,#876,#79,#704,#319,#299,#39,#1243,#400,#1177,#618,#59,#279,#532,#1005,#446,#259,#1093,#1135,#239,#219,#1027,#1051,#919,#833,#747,#199,#661),#14);
#34=IFCCARTESIANPOINT((1.2318949200000002,-1.8161050800000003,-0.20000000000000001));
#35=IFCDIRECTION((0.,0.,1.));
#36=IFCDIRECTION((1.,0.,0.));
#37=IFCAXIS2PLACEMENT3D(#34,#35,#36);
#38=IFCLOCALPLACEMENT($,#37);
#39=IFCSLAB('2ERPx57qP5U9XsHzflm14x',$,'Slab - Kitchen',$,$,#58,#48,$,.FLOOR.);
#40=IFCCARTESIANPOINT((0.,0.));
#41=IFCAXIS2PLACEMENT2D(#40,$);
#42=IFCRECTANGLEPROFILEDEF(.AREA.,$,#41,4.8514101600000004,4.2418101600000009);
#43=IFCCARTESIANPOINT((0.,0.,0.));
#44=IFCAXIS2PLACEMENT3D(#43,$,$);
#45=IFCDIRECTION((0.,0.,1.));
#46=IFCEXTRUDEDAREASOLID(#42,#44,#45,0.20000000000000001);
#47=IFCSHAPEREPRESENTATION(#11,'Body','SweptSolid',(#46));
#48=IFCPRODUCTDEFINITIONSHAPE($,$,(#47));
#54=IFCCARTESIANPOINT((-7.0230949200000001,-1.5113050800000003,-0.20000000000000001));
#55=IFCDIRECTION((0.,0.,1.));
#56=IFCDIRECTION((1.,0.,0.));
#57=IFCAXIS2PLACEMENT3D(#54,#55,#56);
#58=IFCLOCALPLACEMENT($,#57);
#59=IFCSLAB('1zV3flp$T9PvAUnvaCpaId',$,'Slab - Sitting Room',$,$,#78,#68,$,.FLOOR.);
#60=IFCCARTESIANPOINT((0.,0.));
#61=IFCAXIS2PLACEMENT2D(#60,$);
#62=IFCRECTANGLEPROFILEDEF(.AREA.,$,#61,4.8514101600000004,4.902189840000001);
#63=IFCCARTESIANPOINT((0.,0.,0.));
#64=IFCAXIS2PLACEMENT3D(#63,$,$);
#65=IFCDIRECTION((0.,0.,1.));
#66=IFCEXTRUDEDAREASOLID(#62,#64,#65,0.20000000000000001);
#67=IFCSHAPEREPRESENTATION(#11,'Body','SweptSolid',(#66));
#68=IFCPRODUCTDEFINITIONSHAPE($,$,(#67));
#74=IFCCARTESIANPOINT((1.2318949200000002,2.4510949200000005,-0.20000000000000001));
#75=IFCDIRECTION((0.,0.,1.));
#76=IFCDIRECTION((1.,0.,0.));
#77=IFCAXIS2PLACEMENT3D(#74,#75,#76);
#78=IFCLOCALPLACEMENT($,#77);
#79=IFCSLAB('1_ESSZAsz3H8ucqBqPfQAL',$,'Slab - Dining Room',$,$,#98,#88,$,.FLOOR.);
#80=IFCCARTESIANPOINT((0.,0.));
#81=IFCAXIS2PLACEMENT2D(#80,$);
#82=IFCRECTANGLEPROFILEDEF(.AREA.,$,#81,4.8514101600000004,4.2925898400000007);
#83=IFCCARTESIANPOINT((0.,0.,0.));
#84=IFCAXIS2PLACEMENT3D(#83,$,$);
#85=IFCDIRECTION((0.,0.,1.));
#86=IFCEXTRUDEDAREASOLID(#82,#84,#85,0.20000000000000001);
#87=IFCSHAPEREPRESENTATION(#11,'Body','SweptSolid',(#86));
#88=IFCPRODUCTDEFINITIONSHAPE($,$,(#87));
#94=IFCCARTESIANPOINT((-7.0230949200000001,2.7558949200000007,-0.20000000000000001));
#95=IFCDIRECTION((0.,0.,1.));
#96=IFCDIRECTION((1.,0.,0.));
#97=IFCAXIS2PLACEMENT3D(#94,#95,#96);
#98=IFCLOCALPLACEMENT($,#97);
#99=IFCSLAB('0xFyGBZs9CjedxaW3Y$lIK',$,'Slab - Foyer',$,$,#118,#108,$,.FLOOR.);
#100=IFCCARTESIANPOINT((0.,0.));
#101=IFCAXIS2PLACEMENT2D(#100,$);
#102=IFCRECTANGLEPROFILEDEF(.AREA.,$,#101,3.40357968,1.4019885600000004);
#103=IFCCARTESIANPOINT((0.,0.,0.));
#104=IFCAXIS2PLACEMENT3D(#103,$,$);
#105=IFCDIRECTION((0.,0.,1.));
#106=IFCEXTRUDEDAREASOLID(#102,#104,#105,0.20000000000000001);
#107=IFCSHAPEREPRESENTATION(#11,'Body','SweptSolid',(#106));
#108=IFCPRODUCTDEFINITIONSHAPE($,$,(#107));
#114=IFCCARTESIANPOINT((-2.8956,-2.9312158800000003,-0.20000000000000001));
#115=IFCDIRECTION((0.,0.,1.));
#116=IFCDIRECTION((1.,0.,0.));
#117=IFCAXIS2PLACEMENT3D(#114,#115,#116);
#118=IFCLOCALPLACEMENT($,#117);
#119=IFCSLAB('0v02eFO6P4tgbDBWMKz4ib',$,'Slab - Foyer',$,$,#138,#128,$,.FLOOR.);
#120=IFCCARTESIANPOINT((0.,0.));
#121=IFCAXIS2PLACEMENT2D(#120,$);
#122=IFCRECTANGLEPROFILEDEF(.AREA.,$,#121,3.40357968,3.1993941600000002);
#123=IFCCARTESIANPOINT((0.,0.,0.));
#124=IFCAXIS2PLACEMENT3D(#123,$,$);
#125=IFCDIRECTION((0.,0.,1.));
#126=IFCEXTRUDEDAREASOLID(#122,#124,#125,0.20000000000000001);
#127=IFCSHAPEREPRESENTATION(#11,'Body','SweptSolid',(#126));
#128=IFCPRODUCTDEFINITIONSHAPE($,$,(#127));
#134=IFCCARTESIANPOINT((-2.8956,1.4991130800000001,-0.20000000000000001));
#135=IFCDIRECTION((0.,0.,1.));
#136=IFCDIRECTION((1.,0.,0.));
#137=IFCAXIS2PLACEMENT3D(#134,#135,#136);
#138=IFCLOCALPLACEMENT($,#137);
#139=IFCSLAB('3vY55MaqvBVvQ5ZR9f66hH',$,'Slab - Foyer',$,$,#158,#148,$,.FLOOR.);
#140=IFCCARTESIANPOINT((0.,0.));
#141=IFCAXIS2PLACEMENT2D(#140,$);
#142=IFCRECTANGLEPROFILEDEF(.AREA.,$,#141,1.40208,2.1296376000000001);
#143=IFCCARTESIANPOINT((0.,0.,0.));
#144=IFCAXIS2PLACEMENT3D(#143,$,$);
#145=IFCDIRECTION((0.,0.,1.));
#146=IFCEXTRUDEDAREASOLID(#142,#144,#145,0.20000000000000001);
#147=IFCSHAPEREPRESENTATION(#11,'Body','SweptSolid',(#146));
#148=IFCPRODUCTDEFINITIONSHAPE($,$,(#147));
#154=IFCCARTESIANPOINT((-1.8948501600000003,-1.1654028000000001,-0.20000000000000001));
#155=IFCDIRECTION((0.,0.,1.));
#156=IFCDIRECTION((1.,0.,0.));
#157=IFCAXIS2PLACEMENT3D(#154,#155,#156);
#158=IFCLOCALPLACEMENT($,#157);
#159=IFCSLAB('0gGWNCaWf1rgnV2gdwKpQV',$,'Slab - Vestibule',$,$,#178,#168,$,.FLOOR.);
#160=IFCCARTESIANPOINT((0.,0.));
#161=IFCAXIS2PLACEMENT2D(#160,$);
#162=IFCRECTANGLEPROFILEDEF(.AREA.,$,#161,3.40357968,1.8033796800000008);
#163=IFCCARTESIANPOINT((0.,0.,0.));
#164=IFCAXIS2PLACEMENT3D(#163,$,$);
#165=IFCDIRECTION((0.,0.,1.));
#166=IFCEXTRUDEDAREASOLID(#162,#164,#165,0.20000000000000001);
#167=IFCSHAPEREPRESENTATION(#11,'Body','SweptSolid',(#166));
#168=IFCPRODUCTDEFINITIONSHAPE($,$,(#167));
#174=IFCCARTESIANPOINT((-2.8956,4.0005000000000006,-0.20000000000000001));
#175=IFCDIRECTION((0.,0.,1.));
#176=IFCDIRECTION((1.,0.,0.));
#177=IFCAXIS2PLACEMENT3D(#174,#175,#176);
#178=IFCLOCALPLACEMENT($,#177);
#179=IFCSLAB('1zvBn_0rHBABtn7ZaWeF3h',$,'Slab - Ext Bath',$,$,#198,#188,$,.FLOOR.);
#180=IFCCARTESIANPOINT((0.,0.));
#181=IFCAXIS2PLACEMENT2D(#180,$);
#182=IFCRECTANGLEPROFILEDEF(.AREA.,$,#181,1.6637203199999995,3.7947600000000001);
#183=IFCCARTESIANPOINT((0.,0.,0.));
#184=IFCAXIS2PLACEMENT3D(#183,$,$);
#185=IFCDIRECTION((0.,0.,1.));
#186=IFCEXTRUDEDAREASOLID(#182,#184,#185,0.20000000000000001);
#187=IFCSHAPEREPRESENTATION(#11,'Body','SweptSolid',(#186));
#188=IFCPRODUCTDEFINITIONSHAPE($,$,(#187));
#194=IFCCARTESIANPOINT((6.1531500000000001,-0.67817999999999989,-0.20000000000000001));
#195=IFCDIRECTION((0.,0.,1.));
#196=IFCDIRECTION((1.,0.,0.));
#197=IFCAXIS2PLACEMENT3D(#194,#195,#196);
#198=IFCLOCALPLACEMENT($,#197);
#199=IFCSLAB('39UWznrCnARgD7TSQ3ZnnH',$,'Slab - WC',$,$,#218,#208,$,.FLOOR.);
#200=IFCCARTESIANPOINT((0.,0.));
#201=IFCAXIS2PLACEMENT2D(#200,$);
#202=IFCRECTANGLEPROFILEDEF(.AREA.,$,#201,1.6637203199999995,1.0566501600000007);
#203=IFCCARTESIANPOINT((0.,0.,0.));
#204=IFCAXIS2PLACEMENT3D(#203,$,$);
#205=IFCDIRECTION((0.,0.,1.));
#206=IFCEXTRUDEDAREASOLID(#202,#204,#205,0.20000000000000001);
#207=IFCSHAPEREPRESENTATION(#11,'Body','SweptSolid',(#206));
#208=IFCPRODUCTDEFINITIONSHAPE($,$,(#207));
#214=IFCCARTESIANPOINT((6.1531500000000001,-3.1038850800000004,-0.20000000000000001));
#215=IFCDIRECTION((0.,0.,1.));
#216=IFCDIRECTION((1.,0.,0.));
#217=IFCAXIS2PLACEMENT3D(#214,#215,#216);
#218=IFCLOCALPLACEMENT($,#217);
#219=IFCSLAB('3W1lj5Lxf2jeUfbAfku79g',$,'Slab - Ext Vestibule',$,$,#238,#228,$,.FLOOR.);
#220=IFCCARTESIANPOINT((0.,0.));
#221=IFCAXIS2PLACEMENT2D(#220,$);
#222=IFCRECTANGLEPROFILEDEF(.AREA.,$,#221,1.66368984,2.5603199999999999);
#223=IFCCARTESIANPOINT((0.,0.,0.));
#224=IFCAXIS2PLACEMENT3D(#223,$,$);
#225=IFCDIRECTION((0.,0.,1.));
#226=IFCEXTRUDEDAREASOLID(#222,#224,#225,0.20000000000000001);
#227=IFCSHAPEREPRESENTATION(#11,'Body','SweptSolid',(#226));
#228=IFCPRODUCTDEFINITIONSHAPE($,$,(#227));
#234=IFCCARTESIANPOINT((4.4894449200000004,-0.060960000000000014,-0.20000000000000001));
#235=IFCDIRECTION((0.,0.,1.));
#236=IFCDIRECTION((1.,0.,0.));
#237=IFCAXIS2PLACEMENT3D(#234,#235,#236);
#238=IFCLOCALPLACEMENT($,#237);
#239=IFCSLAB('39zXKOEiLBbg5j_jaXpKIX',$,'Slab - Ext Laundry',$,$,#258,#248,$,.FLOOR.);
#240=IFCCARTESIANPOINT((0.,0.));
#241=IFCAXIS2PLACEMENT2D(#240,$);
#242=IFCRECTANGLEPROFILEDEF(.AREA.,$,#241,1.66368984,2.2910901600000004);
#243=IFCCARTESIANPOINT((0.,0.,0.));
#244=IFCAXIS2PLACEMENT3D(#243,$,$);
#245=IFCDIRECTION((0.,0.,1.));
#246=IFCEXTRUDEDAREASOLID(#242,#244,#245,0.20000000000000001);
#247=IFCSHAPEREPRESENTATION(#11,'Body','SweptSolid',(#246));
#248=IFCPRODUCTDEFINITIONSHAPE($,$,(#247));
#254=IFCCARTESIANPOINT((4.4894449200000004,-2.4866650800000003,-0.20000000000000001));
#255=IFCDIRECTION((0.,0.,1.));
#256=IFCDIRECTION((1.,0.,0.));
#257=IFCAXIS2PLACEMENT3D(#254,#255,#256);
#258=IFCLOCALPLACEMENT($,#257);
#259=IFCWALL('00CHj3$zD6DebbvaWbPynA',$,'Wall',$,$,#278,#268,$,$);
#260=IFCCARTESIANPOINT((0.,0.));
#261=IFCAXIS2PLACEMENT2D(#260,$);
#262=IFCRECTANGLEPROFILEDEF(.AREA.,$,#261,0.13968984000000001,8.6740898400000006);
#263=IFCCARTESIANPOINT((0.,0.,0.));
#264=IFCAXIS2PLACEMENT3D(#263,$,$);
#265=IFCDIRECTION((0.,0.,1.));
#266=IFCEXTRUDEDAREASOLID(#262,#264,#265,2.8956);
#267=IFCSHAPEREPRESENTATION(#11,'Body','SweptSolid',(#266));
#268=IFCPRODUCTDEFINITIONSHAPE($,$,(#267));
#274=IFCCARTESIANPOINT((-9.4488000000000003,0.63498999999999994,0.));
#275=IFCDIRECTION((0.,0.,1.));
#276=IFCDIRECTION((1.,0.,0.));
#277=IFCAXIS2PLACEMENT3D(#274,#275,#276);
#278=IFCLOCALPLACEMENT($,#277);
#279=IFCWALL('3HCE3GE$b1ORj0ottGSv$U',$,'Wall',$,$,#298,#288,$,$);
#280=IFCCARTESIANPOINT((0.,0.));
#281=IFCAXIS2PLACEMENT2D(#280,$);
#282=IFCRECTANGLEPROFILEDEF(.AREA.,$,#281,0.13968984000000001,3.8226798400000002);
#283=IFCCARTESIANPOINT((0.,0.,0.));
#284=IFCAXIS2PLACEMENT3D(#283,$,$);
#285=IFCDIRECTION((0.,0.,1.));
#286=IFCEXTRUDEDAREASOLID(#282,#284,#285,2.8956);
#287=IFCSHAPEREPRESENTATION(#11,'Body','SweptSolid',(#286));
#288=IFCPRODUCTDEFINITIONSHAPE($,$,(#287));
#294=IFCCARTESIANPOINT((3.6576,3.0606949999999999,0.));
#295=IFCDIRECTION((0.,0.,1.));
#296=IFCDIRECTION((1.,0.,0.));
#297=IFCAXIS2PLACEMENT3D(#294,#295,#296);
#298=IFCLOCALPLACEMENT($,#297);
#299=IFCWALL('0WfGiiE$H1Yhwq1tWoy6$K',$,'Wall',$,$,#318,#308,$,$);
#300=IFCCARTESIANPOINT((0.,0.));
#301=IFCAXIS2PLACEMENT2D(#300,$);
#302=IFCRECTANGLEPROFILEDEF(.AREA.,$,#301,0.13968984000000001,4.9910998400000004);
#303=IFCCARTESIANPOINT((0.,0.,0.));
#304=IFCAXIS2PLACEMENT3D(#303,$,$);
#305=IFCDIRECTION((0.,0.,1.));
#306=IFCEXTRUDEDAREASOLID(#302,#304,#305,2.8956);
#307=IFCSHAPEREPRESENTATION(#11,'Body','SweptSolid',(#306));
#308=IFCPRODUCTDEFINITIONSHAPE($,$,(#307));
#314=IFCCARTESIANPOINT((6.9850099999999999,-1.2065049999999999,0.));
#315=IFCDIRECTION((0.,0.,1.));
#316=IFCDIRECTION((1.,0.,0.));
#317=IFCAXIS2PLACEMENT3D(#314,#315,#316);
#318=IFCLOCALPLACEMENT($,#317);
#319=IFCWALL('3bRpCW6dP9RuWM5vVCWhtc',$,'Wall',$,$,#338,#328,$,$);
#320=IFCCARTESIANPOINT((0.,0.));
#321=IFCAXIS2PLACEMENT2D(#320,$);
#322=IFCRECTANGLEPROFILEDEF(.AREA.,$,#321,16.57349984,0.13968984000000001);
#323=IFCCARTESIANPOINT((0.,0.,0.));
#324=IFCAXIS2PLACEMENT3D(#323,$,$);
#325=IFCDIRECTION((0.,0.,1.));
#326=IFCEXTRUDEDAREASOLID(#322,#324,#325,2.8956);
#327=IFCSHAPEREPRESENTATION(#11,'Body','SweptSolid',(#326));
#328=IFCPRODUCTDEFINITIONSHAPE($,$,(#327));
#334=IFCCARTESIANPOINT((-1.2318950000000002,-3.6322100000000002,0.));
#335=IFCDIRECTION((0.,0.,1.));
#336=IFCDIRECTION((1.,0.,0.));
#337=IFCAXIS2PLACEMENT3D(#334,#335,#336);
#338=IFCLOCALPLACEMENT($,#337);
#339=IFCWALL('26W0dooyrCIff9b0oN3QeA',$,'Wall',$,$,#358,#348,$,$);
#340=IFCCARTESIANPOINT((0.,0.));
#341=IFCAXIS2PLACEMENT2D(#340,$);
#342=IFCRECTANGLEPROFILEDEF(.AREA.,$,#341,3.4670998399999999,0.13968984000000001);
#343=IFCCARTESIANPOINT((0.,0.,0.));
#344=IFCAXIS2PLACEMENT3D(#343,$,$);
#345=IFCDIRECTION((0.,0.,1.));
#346=IFCEXTRUDEDAREASOLID(#342,#344,#345,2.8956);
#347=IFCSHAPEREPRESENTATION(#11,'Body','SweptSolid',(#346));
#348=IFCPRODUCTDEFINITIONSHAPE($,$,(#347));
#354=IFCCARTESIANPOINT((5.3213049999999997,1.2192000000000001,0.));
#355=IFCDIRECTION((0.,0.,1.));
#356=IFCDIRECTION((1.,0.,0.));
#357=IFCAXIS2PLACEMENT3D(#354,#355,#356);
#358=IFCLOCALPLACEMENT($,#357);
#359=IFCWALL('3HE39sqt1AZv2PLV3LxXQf',$,'Wall',$,$,#378,#368,$,$);
#360=IFCCARTESIANPOINT((0.,0.));
#361=IFCAXIS2PLACEMENT2D(#360,$);
#362=IFCRECTANGLEPROFILEDEF(.AREA.,$,#361,13.246089840000002,0.13968984000000001);
#363=IFCCARTESIANPOINT((0.,0.,0.));
#364=IFCAXIS2PLACEMENT3D(#363,$,$);
#365=IFCDIRECTION((0.,0.,1.));
#366=IFCEXTRUDEDAREASOLID(#362,#364,#365,2.8956);
#367=IFCSHAPEREPRESENTATION(#11,'Body','SweptSolid',(#366));
#368=IFCPRODUCTDEFINITIONSHAPE($,$,(#367));
#374=IFCCARTESIANPOINT((-2.8956,4.90219,0.));
#375=IFCDIRECTION((0.,0.,1.));
#376=IFCDIRECTION((1.,0.,0.));
#377=IFCAXIS2PLACEMENT3D(#374,#375,#376);
#378=IFCLOCALPLACEMENT($,#377);
#379=IFCOPENINGELEMENT('3$uc15JBbFKPDtsDibqA5C',$,'Opening - Upper - Window - Sitting N1',$,$,#399,#388,$,$);
#380=IFCCARTESIANPOINT((0.,0.));
#381=IFCAXIS2PLACEMENT2D(#380,$);
#382=IFCRECTANGLEPROFILEDEF(.AREA.,$,#381,0.76200000000000001,0.23968984000000002);
#383=IFCCARTESIANPOINT((0.,0.,0.));
#384=IFCAXIS2PLACEMENT3D(#383,$,$);
#385=IFCDIRECTION((0.,0.,1.));
#386=IFCEXTRUDEDAREASOLID(#382,#384,#385,1.0668000000000002);
#387=IFCSHAPEREPRESENTATION(#11,'Body','SweptSolid',(#386));
#388=IFCPRODUCTDEFINITIONSHAPE($,$,(#387));
#394=IFCRELVOIDSELEMENT('2vx7m_ZX1E6xFQMzW_OO3n',$,$,$,#359,#379);
#395=IFCCARTESIANPOINT((5.1053999999999995,-1.5999999902760464E-07,0.76200000000000001));
#396=IFCDIRECTION((0.,0.,1.));
#397=IFCDIRECTION((1.,0.,0.));
#398=IFCAXIS2PLACEMENT3D(#395,#396,#397);
#399=IFCLOCALPLACEMENT(#378,#398);
#400=IFCWINDOW('1QyG$oN$j5rQLWbSj$6G0n',$,'Upper - Window - Sitting N1',$,$,#424,#413,$,1.0668000000000002,0.76200000000000001,$,$,$);
#401=IFCCARTESIANPOINT((0.,0.));
#402=IFCAXIS2PLACEMENT2D(#401,$);
#403=IFCRECTANGLEPROFILEDEF(.AREA.,$,#402,0.76200000000000001,0.050000000000000003);
#404=IFCCARTESIANPOINT((0.,0.,0.));
#405=IFCAXIS2PLACEMENT3D(#404,$,$);
#406=IFCDIRECTION((0.,0.,1.));
#407=IFCEXTRUDEDAREASOLID(#403,#405,#406,1.0668000000000002);
#408=IFCSHAPEREPRESENTATION(#11,'Body','SweptSolid',(#407));
#409=IFCSURFACESTYLE($,.BOTH.,(#410));
#410=IFCSURFACESTYLERENDERING(#411,0.69999999999999996,$,$,$,$,$,$,.GLASS.);
#411=IFCCOLOURRGB($,0.59999999999999998,0.80000000000000004,0.92000000000000004);
#412=IFCSTYLEDITEM(#407,(#409),$);
#413=IFCPRODUCTDEFINITIONSHAPE($,$,(#408));
#419=IFCRELFILLSELEMENT('1KQqnoTrv9Rg4uBzzGQ1R$',$,$,$,#379,#400);
#420=IFCCARTESIANPOINT((4.4408920985006262E-16,0.,0.));
#421=IFCDIRECTION((0.,0.,1.));
#422=IFCDIRECTION((1.,0.,0.));
#423=IFCAXIS2PLACEMENT3D(#420,#421,#422);
#424=IFCLOCALPLACEMENT(#399,#423);
#425=IFCOPENINGELEMENT('1$aPXKMZDEEw3OqrLB7ODj',$,'Opening - Upper - Window - Sitting N2',$,$,#445,#434,$,$);
#426=IFCCARTESIANPOINT((0.,0.));
#427=IFCAXIS2PLACEMENT2D(#426,$);
#428=IFCRECTANGLEPROFILEDEF(.AREA.,$,#427,0.76200000000000001,0.23968984000000002);
#429=IFCCARTESIANPOINT((0.,0.,0.));
#430=IFCAXIS2PLACEMENT3D(#429,$,$);
#431=IFCDIRECTION((0.,0.,1.));
#432=IFCEXTRUDEDAREASOLID(#428,#430,#431,1.0668000000000002);
#433=IFCSHAPEREPRESENTATION(#11,'Body','SweptSolid',(#432));
#434=IFCPRODUCTDEFINITIONSHAPE($,$,(#433));
#440=IFCRELVOIDSELEMENT('3hRQQz7WT3ugHcC8gArXVR',$,$,$,#359,#425);
#441=IFCCARTESIANPOINT((2.5526999999999997,-1.5999999902760464E-07,0.76200000000000001));
#442=IFCDIRECTION((0.,0.,1.));
#443=IFCDIRECTION((1.,0.,0.));
#444=IFCAXIS2PLACEMENT3D(#441,#442,#443);
#445=IFCLOCALPLACEMENT(#378,#444);
#446=IFCWINDOW('0kxWXjLpP1EOGrpWbtr11l',$,'Upper - Window - Sitting N2',$,$,#467,#456,$,1.0668000000000002,0.76200000000000001,$,$,$);
#447=IFCCARTESIANPOINT((0.,0.));
#448=IFCAXIS2PLACEMENT2D(#447,$);
#449=IFCRECTANGLEPROFILEDEF(.AREA.,$,#448,0.76200000000000001,0.050000000000000003);
#450=IFCCARTESIANPOINT((0.,0.,0.));
#451=IFCAXIS2PLACEMENT3D(#450,$,$);
#452=IFCDIRECTION((0.,0.,1.));
#453=IFCEXTRUDEDAREASOLID(#449,#451,#452,1.0668000000000002);
#454=IFCSHAPEREPRESENTATION(#11,'Body','SweptSolid',(#453));
#455=IFCSTYLEDITEM(#453,(#409),$);
#456=IFCPRODUCTDEFINITIONSHAPE($,$,(#454));
#462=IFCRELFILLSELEMENT('2iAjWmjOPAhf1$hhSz8N2_',$,$,$,#425,#446);
#463=IFCCARTESIANPOINT((1.6653345369377348E-16,0.,0.));
#464=IFCDIRECTION((0.,0.,1.));
#465=IFCDIRECTION((1.,0.,0.));
#466=IFCAXIS2PLACEMENT3D(#463,#464,#465);
#467=IFCLOCALPLACEMENT(#445,#466);
#468=IFCOPENINGELEMENT('1$mpksJpj0$vnvmWE9F5hK',$,'Opening - Upper - Window - Dining N1',$,$,#488,#477,$,$);
#469=IFCCARTESIANPOINT((0.,0.));
#470=IFCAXIS2PLACEMENT2D(#469,$);
#471=IFCRECTANGLEPROFILEDEF(.AREA.,$,#470,0.76200000000000001,0.23968984000000002);
#472=IFCCARTESIANPOINT((0.,0.,0.));
#473=IFCAXIS2PLACEMENT3D(#472,$,$);
#474=IFCDIRECTION((0.,0.,1.));
#475=IFCEXTRUDEDAREASOLID(#471,#473,#474,1.0668000000000002);
#476=IFCSHAPEREPRESENTATION(#11,'Body','SweptSolid',(#475));
#477=IFCPRODUCTDEFINITIONSHAPE($,$,(#476));
#483=IFCRELVOIDSELEMENT('1WvH8YJ0XD4wLz8nPCprcA',$,$,$,#359,#468);
#484=IFCCARTESIANPOINT((-2.5527000000000006,-1.5999999902760464E-07,0.76200000000000001));
#485=IFCDIRECTION((0.,0.,1.));
#486=IFCDIRECTION((1.,0.,0.));
#487=IFCAXIS2PLACEMENT3D(#484,#485,#486);
#488=IFCLOCALPLACEMENT(#378,#487);
#489=IFCWINDOW('2oHAnZUjL1HxUzqVnZ3thJ',$,'Upper - Window - Dining N1',$,$,#510,#499,$,1.0668000000000002,0.76200000000000001,$,$,$);
#490=IFCCARTESIANPOINT((0.,0.));
#491=IFCAXIS2PLACEMENT2D(#490,$);
#492=IFCRECTANGLEPROFILEDEF(.AREA.,$,#491,0.76200000000000001,0.050000000000000003);
#493=IFCCARTESIANPOINT((0.,0.,0.));
#494=IFCAXIS2PLACEMENT3D(#493,$,$);
#495=IFCDIRECTION((0.,0.,1.));
#496=IFCEXTRUDEDAREASOLID(#492,#494,#495,1.0668000000000002);
#497=IFCSHAPEREPRESENTATION(#11,'Body','SweptSolid',(#496));
#498=IFCSTYLEDITEM(#496,(#409),$);
#499=IFCPRODUCTDEFINITIONSHAPE($,$,(#497));
#505=IFCRELFILLSELEMENT('0AiTge5GLCIfFj7xdOqLVF',$,$,$,#468,#489);
#506=IFCCARTESIANPOINT((0.,0.,0.));
#507=IFCDIRECTION((0.,0.,1.));
#508=IFCDIRECTION((1.,0.,0.));
#509=IFCAXIS2PLACEMENT3D(#506,#507,#508);
#510=IFCLOCALPLACEMENT(#488,#509);
#511=IFCOPENINGELEMENT('3aVTqohqD86esFm0Wm_7rp',$,'Opening - Upper - Window - Dining N2',$,$,#531,#520,$,$);
#512=IFCCARTESIANPOINT((0.,0.));
#513=IFCAXIS2PLACEMENT2D(#512,$);
#514=IFCRECTANGLEPROFILEDEF(.AREA.,$,#513,0.76200000000000001,0.23968984000000002);
#515=IFCCARTESIANPOINT((0.,0.,0.));
#516=IFCAXIS2PLACEMENT3D(#515,$,$);
#517=IFCDIRECTION((0.,0.,1.));
#518=IFCEXTRUDEDAREASOLID(#514,#516,#517,1.0668000000000002);
#519=IFCSHAPEREPRESENTATION(#11,'Body','SweptSolid',(#518));
#520=IFCPRODUCTDEFINITIONSHAPE($,$,(#519));
#526=IFCRELVOIDSELEMENT('2VQscIuGbAZO48AUBsKGAo',$,$,$,#359,#511);
#527=IFCCARTESIANPOINT((-5.1054000000000013,-1.5999999902760464E-07,0.76200000000000001));
#528=IFCDIRECTION((0.,0.,1.));
#529=IFCDIRECTION((1.,0.,0.));
#530=IFCAXIS2PLACEMENT3D(#527,#528,#529);
#531=IFCLOCALPLACEMENT(#378,#530);
#532=IFCWINDOW('1c_0b8fY568xqPXhZ$d7fI',$,'Upper - Window - Dining N2',$,$,#553,#542,$,1.0668000000000002,0.76200000000000001,$,$,$);
#533=IFCCARTESIANPOINT((0.,0.));
#534=IFCAXIS2PLACEMENT2D(#533,$);
#535=IFCRECTANGLEPROFILEDEF(.AREA.,$,#534,0.76200000000000001,0.050000000000000003);
#536=IFCCARTESIANPOINT((0.,0.,0.));
#537=IFCAXIS2PLACEMENT3D(#536,$,$);
#538=IFCDIRECTION((0.,0.,1.));
#539=IFCEXTRUDEDAREASOLID(#535,#537,#538,1.0668000000000002);
#540=IFCSHAPEREPRESENTATION(#11,'Body','SweptSolid',(#539));
#541=IFCSTYLEDITEM(#539,(#409),$);
#542=IFCPRODUCTDEFINITIONSHAPE($,$,(#540));
#548=IFCRELFILLSELEMENT('1LlNZezET4Ih9W9ZEkP9yl',$,$,$,#511,#532);
#549=IFCCARTESIANPOINT((0.,0.,0.));
#550=IFCDIRECTION((0.,0.,1.));
#551=IFCDIRECTION((1.,0.,0.));
#552=IFCAXIS2PLACEMENT3D(#549,#550,#551);
#553=IFCLOCALPLACEMENT(#531,#552);
#554=IFCOPENINGELEMENT('2nKf$uBur8z8eZogWLbt69',$,'Opening - Upper - Front Door',$,$,#574,#563,$,$);
#555=IFCCARTESIANPOINT((0.,0.));
#556=IFCAXIS2PLACEMENT2D(#555,$);
#557=IFCRECTANGLEPROFILEDEF(.AREA.,$,#556,0.76200000000000001,0.23968984000000002);
#558=IFCCARTESIANPOINT((0.,0.,0.));
#559=IFCAXIS2PLACEMENT3D(#558,$,$);
#560=IFCDIRECTION((0.,0.,1.));
#561=IFCEXTRUDEDAREASOLID(#557,#559,#560,1.0668000000000002);
#562=IFCSHAPEREPRESENTATION(#11,'Body','SweptSolid',(#561));
#563=IFCPRODUCTDEFINITIONSHAPE($,$,(#562));
#569=IFCRELVOIDSELEMENT('3ENhTW8_H12B6rnB53mLpQ',$,$,$,#359,#554);
#570=IFCCARTESIANPOINT((0.,-1.5999999902760464E-07,0.76200000000000001));
#571=IFCDIRECTION((0.,0.,1.));
#572=IFCDIRECTION((1.,0.,0.));
#573=IFCAXIS2PLACEMENT3D(#570,#571,#572);
#574=IFCLOCALPLACEMENT(#378,#573);
#575=IFCWINDOW('1rbA7bmI9AzOJYJItwQVV_',$,'Upper - Front Door',$,$,#596,#585,$,1.0668000000000002,0.76200000000000001,$,$,$);
#576=IFCCARTESIANPOINT((0.,0.));
#577=IFCAXIS2PLACEMENT2D(#576,$);
#578=IFCRECTANGLEPROFILEDEF(.AREA.,$,#577,0.76200000000000001,0.050000000000000003);
#579=IFCCARTESIANPOINT((0.,0.,0.));
#580=IFCAXIS2PLACEMENT3D(#579,$,$);
#581=IFCDIRECTION((0.,0.,1.));
#582=IFCEXTRUDEDAREASOLID(#578,#580,#581,1.0668000000000002);
#583=IFCSHAPEREPRESENTATION(#11,'Body','SweptSolid',(#582));
#584=IFCSTYLEDITEM(#582,(#409),$);
#585=IFCPRODUCTDEFINITIONSHAPE($,$,(#583));
#591=IFCRELFILLSELEMENT('0ouYrnGUj2tObHqqaH14ln',$,$,$,#554,#575);
#592=IFCCARTESIANPOINT((0.,0.,0.));
#593=IFCDIRECTION((0.,0.,1.));
#594=IFCDIRECTION((1.,0.,0.));
#595=IFCAXIS2PLACEMENT3D(#592,#593,#594);
#596=IFCLOCALPLACEMENT(#574,#595);
#597=IFCOPENINGELEMENT('38OjhfLrv8gBZPy8ENU2hT',$,'Opening - Upper - West 1',$,$,#617,#606,$,$);
#598=IFCCARTESIANPOINT((0.,0.));
#599=IFCAXIS2PLACEMENT2D(#598,$);
#600=IFCRECTANGLEPROFILEDEF(.AREA.,$,#599,0.23968984000000002,0.76200000000000001);
#601=IFCCARTESIANPOINT((0.,0.,0.));
#602=IFCAXIS2PLACEMENT3D(#601,$,$);
#603=IFCDIRECTION((0.,0.,1.));
#604=IFCEXTRUDEDAREASOLID(#600,#602,#603,1.0668000000000002);
#605=IFCSHAPEREPRESENTATION(#11,'Body','SweptSolid',(#604));
#606=IFCPRODUCTDEFINITIONSHAPE($,$,(#605));
#612=IFCRELVOIDSELEMENT('2pa4LI8yH3a9FF$rojc_WD',$,$,$,#259,#597);
#613=IFCCARTESIANPOINT((0.,-2.7622532079999997,0.76200000000000001));
#614=IFCDIRECTION((0.,0.,1.));
#615=IFCDIRECTION((1.,0.,0.));
#616=IFCAXIS2PLACEMENT3D(#613,#614,#615);
#617=IFCLOCALPLACEMENT(#278,#616);
#618=IFCWINDOW('1NFCDy$Jf8oOknuD9rMyMY',$,'Upper - West 1',$,$,#639,#628,$,1.0668000000000002,0.76200000000000001,$,$,$);
#619=IFCCARTESIANPOINT((0.,0.));
#620=IFCAXIS2PLACEMENT2D(#619,$);
#621=IFCRECTANGLEPROFILEDEF(.AREA.,$,#620,0.050000000000000003,0.76200000000000001);
#622=IFCCARTESIANPOINT((0.,0.,0.));
#623=IFCAXIS2PLACEMENT3D(#622,$,$);
#624=IFCDIRECTION((0.,0.,1.));
#625=IFCEXTRUDEDAREASOLID(#621,#623,#624,1.0668000000000002);
#626=IFCSHAPEREPRESENTATION(#11,'Body','SweptSolid',(#625));
#627=IFCSTYLEDITEM(#625,(#409),$);
#628=IFCPRODUCTDEFINITIONSHAPE($,$,(#626));
#634=IFCRELFILLSELEMENT('1wTNA6Hx17s9W5hSkI5eW4',$,$,$,#597,#618);
#635=IFCCARTESIANPOINT((0.,-4.4408920985006262E-16,0.));
#636=IFCDIRECTION((0.,0.,1.));
#637=IFCDIRECTION((1.,0.,0.));
#638=IFCAXIS2PLACEMENT3D(#635,#636,#637);
#639=IFCLOCALPLACEMENT(#617,#638);
#640=IFCOPENINGELEMENT('1RO2lQq5XFVu3WQmbt2oKZ',$,'Opening - Upper - West 2',$,$,#660,#649,$,$);
#641=IFCCARTESIANPOINT((0.,0.));
#642=IFCAXIS2PLACEMENT2D(#641,$);
#643=IFCRECTANGLEPROFILEDEF(.AREA.,$,#642,0.23968984000000002,0.76200000000000001);
#644=IFCCARTESIANPOINT((0.,0.,0.));
#645=IFCAXIS2PLACEMENT3D(#644,$,$);
#646=IFCDIRECTION((0.,0.,1.));
#647=IFCEXTRUDEDAREASOLID(#643,#645,#646,1.0668000000000002);
#648=IFCSHAPEREPRESENTATION(#11,'Body','SweptSolid',(#647));
#649=IFCPRODUCTDEFINITIONSHAPE($,$,(#648));
#655=IFCRELVOIDSELEMENT('0Biplq3XjAGhW5l8PrHhfW',$,$,$,#259,#640);
#656=IFCCARTESIANPOINT((0.,-0.92075219199999991,0.76200000000000001));
#657=IFCDIRECTION((0.,0.,1.));
#658=IFCDIRECTION((1.,0.,0.));
#659=IFCAXIS2PLACEMENT3D(#656,#657,#658);
#660=IFCLOCALPLACEMENT(#278,#659);
#661=IFCWINDOW('3v4CweAnHBX8tHv81H3M89',$,'Upper - West 2',$,$,#682,#671,$,1.0668000000000002,0.76200000000000001,$,$,$);
#662=IFCCARTESIANPOINT((0.,0.));
#663=IFCAXIS2PLACEMENT2D(#662,$);
#664=IFCRECTANGLEPROFILEDEF(.AREA.,$,#663,0.050000000000000003,0.76200000000000001);
#665=IFCCARTESIANPOINT((0.,0.,0.));
#666=IFCAXIS2PLACEMENT3D(#665,$,$);
#667=IFCDIRECTION((0.,0.,1.));
#668=IFCEXTRUDEDAREASOLID(#664,#666,#667,1.0668000000000002);
#669=IFCSHAPEREPRESENTATION(#11,'Body','SweptSolid',(#668));
#670=IFCSTYLEDITEM(#668,(#409),$);
#671=IFCPRODUCTDEFINITIONSHAPE($,$,(#669));
#677=IFCRELFILLSELEMENT('21b5Nj$or5ThQoKnTipRqu',$,$,$,#640,#661);
#678=IFCCARTESIANPOINT((0.,-5.5511151231257827E-17,0.));
#679=IFCDIRECTION((0.,0.,1.));
#680=IFCDIRECTION((1.,0.,0.));
#681=IFCAXIS2PLACEMENT3D(#678,#679,#680);
#682=IFCLOCALPLACEMENT(#660,#681);
#683=IFCOPENINGELEMENT('0ZV$Zms4P9$h2oya_wSNde',$,'Opening - Upper - West 3',$,$,#703,#692,$,$);
#684=IFCCARTESIANPOINT((0.,0.));
#685=IFCAXIS2PLACEMENT2D(#684,$);
#686=IFCRECTANGLEPROFILEDEF(.AREA.,$,#685,0.23968984000000002,0.76200000000000001);
#687=IFCCARTESIANPOINT((0.,0.,0.));
#688=IFCAXIS2PLACEMENT3D(#687,$,$);
#689=IFCDIRECTION((0.,0.,1.));
#690=IFCEXTRUDEDAREASOLID(#686,#688,#689,1.0668000000000002);
#691=IFCSHAPEREPRESENTATION(#11,'Body','SweptSolid',(#690));
#692=IFCPRODUCTDEFINITIONSHAPE($,$,(#691));
#698=IFCRELVOIDSELEMENT('0WVKVE9QrAHPdvaNkqe9bP',$,$,$,#259,#683);
#699=IFCCARTESIANPOINT((0.,0.92075187200000008,0.76200000000000001));
#700=IFCDIRECTION((0.,0.,1.));
#701=IFCDIRECTION((1.,0.,0.));
#702=IFCAXIS2PLACEMENT3D(#699,#700,#701);
#703=IFCLOCALPLACEMENT(#278,#702);
#704=IFCWINDOW('2uBBt7RFX9juqFeTiarJMZ',$,'Upper - West 3',$,$,#725,#714,$,1.0668000000000002,0.76200000000000001,$,$,$);
#705=IFCCARTESIANPOINT((0.,0.));
#706=IFCAXIS2PLACEMENT2D(#705,$);
#707=IFCRECTANGLEPROFILEDEF(.AREA.,$,#706,0.050000000000000003,0.76200000000000001);
#708=IFCCARTESIANPOINT((0.,0.,0.));
#709=IFCAXIS2PLACEMENT3D(#708,$,$);
#710=IFCDIRECTION((0.,0.,1.));
#711=IFCEXTRUDEDAREASOLID(#707,#709,#710,1.0668000000000002);
#712=IFCSHAPEREPRESENTATION(#11,'Body','SweptSolid',(#711));
#713=IFCSTYLEDITEM(#711,(#409),$);
#714=IFCPRODUCTDEFINITIONSHAPE($,$,(#712));
#720=IFCRELFILLSELEMENT('1KQlnBl$rCfeQnnp8UvIwo',$,$,$,#683,#704);
#721=IFCCARTESIANPOINT((0.,0.,0.));
#722=IFCDIRECTION((0.,0.,1.));
#723=IFCDIRECTION((1.,0.,0.));
#724=IFCAXIS2PLACEMENT3D(#721,#722,#723);
#725=IFCLOCALPLACEMENT(#703,#724);
#726=IFCOPENINGELEMENT('2vAqqhtzPBiAcDgNcS$QFp',$,'Opening - Upper - West 4',$,$,#746,#735,$,$);
#727=IFCCARTESIANPOINT((0.,0.));
#728=IFCAXIS2PLACEMENT2D(#727,$);
#729=IFCRECTANGLEPROFILEDEF(.AREA.,$,#728,0.23968984000000002,0.76200000000000001);
#730=IFCCARTESIANPOINT((0.,0.,0.));
#731=IFCAXIS2PLACEMENT3D(#730,$,$);
#732=IFCDIRECTION((0.,0.,1.));
#733=IFCEXTRUDEDAREASOLID(#729,#731,#732,1.0668000000000002);
#734=IFCSHAPEREPRESENTATION(#11,'Body','SweptSolid',(#733));
#735=IFCPRODUCTDEFINITIONSHAPE($,$,(#734));
#741=IFCRELVOIDSELEMENT('2N0AJ$DgrBpeWHZdmcc2B$',$,$,$,#259,#726);
#742=IFCCARTESIANPOINT((0.,2.7622528880000008,0.76200000000000001));
#743=IFCDIRECTION((0.,0.,1.));
#744=IFCDIRECTION((1.,0.,0.));
#745=IFCAXIS2PLACEMENT3D(#742,#743,#744);
#746=IFCLOCALPLACEMENT(#278,#745);
#747=IFCWINDOW('2G5RMXY09FohdieMO2z9kv',$,'Upper - West 4',$,$,#768,#757,$,1.0668000000000002,0.76200000000000001,$,$,$);
#748=IFCCARTESIANPOINT((0.,0.));
#749=IFCAXIS2PLACEMENT2D(#748,$);
#750=IFCRECTANGLEPROFILEDEF(.AREA.,$,#749,0.050000000000000003,0.76200000000000001);
#751=IFCCARTESIANPOINT((0.,0.,0.));
#752=IFCAXIS2PLACEMENT3D(#751,$,$);
#753=IFCDIRECTION((0.,0.,1.));
#754=IFCEXTRUDEDAREASOLID(#750,#752,#753,1.0668000000000002);
#755=IFCSHAPEREPRESENTATION(#11,'Body','SweptSolid',(#754));
#756=IFCSTYLEDITEM(#754,(#409),$);
#757=IFCPRODUCTDEFINITIONSHAPE($,$,(#755));
#763=IFCRELFILLSELEMENT('3JxvqqQc5EXhFHJjBk$hhx',$,$,$,#726,#747);
#764=IFCCARTESIANPOINT((0.,-4.4408920985006262E-16,0.));
#765=IFCDIRECTION((0.,0.,1.));
#766=IFCDIRECTION((1.,0.,0.));
#767=IFCAXIS2PLACEMENT3D(#764,#765,#766);
#768=IFCLOCALPLACEMENT(#746,#767);
#769=IFCOPENINGELEMENT('100seml_TECBtJE2RwKC1B',$,'Opening - Upper - South E',$,$,#789,#778,$,$);
#770=IFCCARTESIANPOINT((0.,0.));
#771=IFCAXIS2PLACEMENT2D(#770,$);
#772=IFCRECTANGLEPROFILEDEF(.AREA.,$,#771,0.76200000000000001,0.23968984000000002);
#773=IFCCARTESIANPOINT((0.,0.,0.));
#774=IFCAXIS2PLACEMENT3D(#773,$,$);
#775=IFCDIRECTION((0.,0.,1.));
#776=IFCEXTRUDEDAREASOLID(#772,#774,#775,1.0668000000000002);
#777=IFCSHAPEREPRESENTATION(#11,'Body','SweptSolid',(#776));
#778=IFCPRODUCTDEFINITIONSHAPE($,$,(#777));
#784=IFCRELVOIDSELEMENT('3K5TbxewPEqwr7I9KlM7U$',$,$,$,#319,#769);
#785=IFCCARTESIANPOINT((3.1495899200000004,-1.6000000035987227E-07,0.76200000000000001));
#786=IFCDIRECTION((0.,0.,1.));
#787=IFCDIRECTION((1.,0.,0.));
#788=IFCAXIS2PLACEMENT3D(#785,#786,#787);
#789=IFCLOCALPLACEMENT(#338,#788);
#790=IFCWINDOW('2VTyIEzmT57ADKJLqVPU6f',$,'Upper - South E',$,$,#811,#800,$,1.0668000000000002,0.76200000000000001,$,$,$);
#791=IFCCARTESIANPOINT((0.,0.));
#792=IFCAXIS2PLACEMENT2D(#791,$);
#793=IFCRECTANGLEPROFILEDEF(.AREA.,$,#792,0.76200000000000001,0.050000000000000003);
#794=IFCCARTESIANPOINT((0.,0.,0.));
#795=IFCAXIS2PLACEMENT3D(#794,$,$);
#796=IFCDIRECTION((0.,0.,1.));
#797=IFCEXTRUDEDAREASOLID(#793,#795,#796,1.0668000000000002);
#798=IFCSHAPEREPRESENTATION(#11,'Body','SweptSolid',(#797));
#799=IFCSTYLEDITEM(#797,(#409),$);
#800=IFCPRODUCTDEFINITIONSHAPE($,$,(#798));
#806=IFCRELFILLSELEMENT('0_gwab1cPEIhu$Ij3JkMjR',$,$,$,#769,#790);
#807=IFCCARTESIANPOINT((-2.2204460492503131E-16,0.,0.));
#808=IFCDIRECTION((0.,0.,1.));
#809=IFCDIRECTION((1.,0.,0.));
#810=IFCAXIS2PLACEMENT3D(#807,#808,#809);
#811=IFCLOCALPLACEMENT(#789,#810);
#812=IFCOPENINGELEMENT('1AbOY5I3rEQ9x0Hrd2gW3H',$,'Opening - Upper - South W',$,$,#832,#821,$,$);
#813=IFCCARTESIANPOINT((0.,0.));
#814=IFCAXIS2PLACEMENT2D(#813,$);
#815=IFCRECTANGLEPROFILEDEF(.AREA.,$,#814,0.76200000000000001,0.23968984000000002);
#816=IFCCARTESIANPOINT((0.,0.,0.));
#817=IFCAXIS2PLACEMENT3D(#816,$,$);
#818=IFCDIRECTION((0.,0.,1.));
#819=IFCEXTRUDEDAREASOLID(#815,#817,#818,1.0668000000000002);
#820=IFCSHAPEREPRESENTATION(#11,'Body','SweptSolid',(#819));
#821=IFCPRODUCTDEFINITIONSHAPE($,$,(#820));
#827=IFCRELVOIDSELEMENT('1akgPDppbD3fCTI_V7Ffn$',$,$,$,#319,#812);
#828=IFCCARTESIANPOINT((-6.4769999200000008,-1.6000000035987227E-07,0.76200000000000001));
#829=IFCDIRECTION((0.,0.,1.));
#830=IFCDIRECTION((1.,0.,0.));
#831=IFCAXIS2PLACEMENT3D(#828,#829,#830);
#832=IFCLOCALPLACEMENT(#338,#831);
#833=IFCWINDOW('2SpHek_RzAhAtExRya7wKk',$,'Upper - South W',$,$,#854,#843,$,1.0668000000000002,0.76200000000000001,$,$,$);
#834=IFCCARTESIANPOINT((0.,0.));
#835=IFCAXIS2PLACEMENT2D(#834,$);
#836=IFCRECTANGLEPROFILEDEF(.AREA.,$,#835,0.76200000000000001,0.050000000000000003);
#837=IFCCARTESIANPOINT((0.,0.,0.));
#838=IFCAXIS2PLACEMENT3D(#837,$,$);
#839=IFCDIRECTION((0.,0.,1.));
#840=IFCEXTRUDEDAREASOLID(#836,#838,#839,1.0668000000000002);
#841=IFCSHAPEREPRESENTATION(#11,'Body','SweptSolid',(#840));
#842=IFCSTYLEDITEM(#840,(#409),$);
#843=IFCPRODUCTDEFINITIONSHAPE($,$,(#841));
#849=IFCRELFILLSELEMENT('1OEj1N7f55jwkzXFm3x_eV',$,$,$,#812,#833);
#850=IFCCARTESIANPOINT((0.,0.,0.));
#851=IFCDIRECTION((0.,0.,1.));
#852=IFCDIRECTION((1.,0.,0.));
#853=IFCAXIS2PLACEMENT3D(#850,#851,#852);
#854=IFCLOCALPLACEMENT(#832,#853);
#855=IFCOPENINGELEMENT('2pU5Gwhp901u_8n2lYnMz0',$,'Opening - Upper - East',$,$,#875,#864,$,$);
#856=IFCCARTESIANPOINT((0.,0.));
#857=IFCAXIS2PLACEMENT2D(#856,$);
#858=IFCRECTANGLEPROFILEDEF(.AREA.,$,#857,0.23968984000000002,0.76200000000000001);
#859=IFCCARTESIANPOINT((0.,0.,0.));
#860=IFCAXIS2PLACEMENT3D(#859,$,$);
#861=IFCDIRECTION((0.,0.,1.));
#862=IFCEXTRUDEDAREASOLID(#858,#860,#861,1.0668000000000002);
#863=IFCSHAPEREPRESENTATION(#11,'Body','SweptSolid',(#862));
#864=IFCPRODUCTDEFINITIONSHAPE($,$,(#863));
#870=IFCRELVOIDSELEMENT('1q13rYEtDDAPXVIpZYVeYy',$,$,$,#279,#855);
#871=IFCCARTESIANPOINT((4.4408920985006262E-16,-7.9999999513802322E-08,0.76200000000000001));
#872=IFCDIRECTION((0.,0.,1.));
#873=IFCDIRECTION((1.,0.,0.));
#874=IFCAXIS2PLACEMENT3D(#871,#872,#873);
#875=IFCLOCALPLACEMENT(#298,#874);
#876=IFCWINDOW('3WZ6gY5ST3xwit5Yfd33cn',$,'Upper - East',$,$,#897,#886,$,1.0668000000000002,0.76200000000000001,$,$,$);
#877=IFCCARTESIANPOINT((0.,0.));
#878=IFCAXIS2PLACEMENT2D(#877,$);
#879=IFCRECTANGLEPROFILEDEF(.AREA.,$,#878,0.050000000000000003,0.76200000000000001);
#880=IFCCARTESIANPOINT((0.,0.,0.));
#881=IFCAXIS2PLACEMENT3D(#880,$,$);
#882=IFCDIRECTION((0.,0.,1.));
#883=IFCEXTRUDEDAREASOLID(#879,#881,#882,1.0668000000000002);
#884=IFCSHAPEREPRESENTATION(#11,'Body','SweptSolid',(#883));
#885=IFCSTYLEDITEM(#883,(#409),$);
#886=IFCPRODUCTDEFINITIONSHAPE($,$,(#884));
#892=IFCRELFILLSELEMENT('1tYEo0hGj3$BDACnTD5Ohd',$,$,$,#855,#876);
#893=IFCCARTESIANPOINT((0.,0.,0.));
#894=IFCDIRECTION((0.,0.,1.));
#895=IFCDIRECTION((1.,0.,0.));
#896=IFCAXIS2PLACEMENT3D(#893,#894,#895);
#897=IFCLOCALPLACEMENT(#875,#896);
#898=IFCOPENINGELEMENT('1x4gLtuQ95egNCKOn5lljf',$,'Opening - Upper - Ext east 1',$,$,#918,#907,$,$);
#899=IFCCARTESIANPOINT((0.,0.));
#900=IFCAXIS2PLACEMENT2D(#899,$);
#901=IFCRECTANGLEPROFILEDEF(.AREA.,$,#900,0.23968984000000002,0.60960000000000003);
#902=IFCCARTESIANPOINT((0.,0.,0.));
#903=IFCAXIS2PLACEMENT3D(#902,$,$);
#904=IFCDIRECTION((0.,0.,1.));
#905=IFCEXTRUDEDAREASOLID(#901,#903,#904,0.5334000000000001);
#906=IFCSHAPEREPRESENTATION(#11,'Body','SweptSolid',(#905));
#907=IFCPRODUCTDEFINITIONSHAPE($,$,(#906));
#913=IFCRELVOIDSELEMENT('31sGQ28Pr7kQTlirNmn8SH',$,$,$,#299,#898);
#914=IFCCARTESIANPOINT((1.5999999991578306E-07,-0.42036499999999988,1.3258799999999999));
#915=IFCDIRECTION((0.,0.,1.));
#916=IFCDIRECTION((1.,0.,0.));
#917=IFCAXIS2PLACEMENT3D(#914,#915,#916);
#918=IFCLOCALPLACEMENT(#318,#917);
#919=IFCWINDOW('01vlvwSy95nAj$8Rx9Fe$Q',$,'Upper - Ext east 1',$,$,#940,#929,$,0.5334000000000001,0.60960000000000003,$,$,$);
#920=IFCCARTESIANPOINT((0.,0.));
#921=IFCAXIS2PLACEMENT2D(#920,$);
#922=IFCRECTANGLEPROFILEDEF(.AREA.,$,#921,0.050000000000000003,0.60960000000000003);
#923=IFCCARTESIANPOINT((0.,0.,0.));
#924=IFCAXIS2PLACEMENT3D(#923,$,$);
#925=IFCDIRECTION((0.,0.,1.));
#926=IFCEXTRUDEDAREASOLID(#922,#924,#925,0.5334000000000001);
#927=IFCSHAPEREPRESENTATION(#11,'Body','SweptSolid',(#926));
#928=IFCSTYLEDITEM(#926,(#409),$);
#929=IFCPRODUCTDEFINITIONSHAPE($,$,(#927));
#935=IFCRELFILLSELEMENT('2tYjkKoRb5Vw9KIo0BsgJh',$,$,$,#898,#919);
#936=IFCCARTESIANPOINT((0.,0.,0.));
#937=IFCDIRECTION((0.,0.,1.));
#938=IFCDIRECTION((1.,0.,0.));
#939=IFCAXIS2PLACEMENT3D(#936,#937,#938);
#940=IFCLOCALPLACEMENT(#918,#939);
#941=IFCOPENINGELEMENT('1JVH_Lf7r1K9dDSA_buq4v',$,'Opening - Upper - Ext east 2',$,$,#961,#950,$,$);
#942=IFCCARTESIANPOINT((0.,0.));
#943=IFCAXIS2PLACEMENT2D(#942,$);
#944=IFCRECTANGLEPROFILEDEF(.AREA.,$,#943,0.23968984000000002,0.60960000000000003);
#945=IFCCARTESIANPOINT((0.,0.,0.));
#946=IFCAXIS2PLACEMENT3D(#945,$,$);
#947=IFCDIRECTION((0.,0.,1.));
#948=IFCEXTRUDEDAREASOLID(#944,#946,#947,0.5334000000000001);
#949=IFCSHAPEREPRESENTATION(#11,'Body','SweptSolid',(#948));
#950=IFCPRODUCTDEFINITIONSHAPE($,$,(#949));
#956=IFCRELVOIDSELEMENT('2YK4NXZerA8Oo4DNSXz1Dc',$,$,$,#299,#941);
#957=IFCCARTESIANPOINT((1.5999999991578306E-07,1.4770149999999997,1.3258799999999999));
#958=IFCDIRECTION((0.,0.,1.));
#959=IFCDIRECTION((1.,0.,0.));
#960=IFCAXIS2PLACEMENT3D(#957,#958,#959);
#961=IFCLOCALPLACEMENT(#318,#960);
#962=IFCWINDOW('2B$GzTnj12ePOX7d7u4n89',$,'Upper - Ext east 2',$,$,#983,#972,$,0.5334000000000001,0.60960000000000003,$,$,$);
#963=IFCCARTESIANPOINT((0.,0.));
#964=IFCAXIS2PLACEMENT2D(#963,$);
#965=IFCRECTANGLEPROFILEDEF(.AREA.,$,#964,0.050000000000000003,0.60960000000000003);
#966=IFCCARTESIANPOINT((0.,0.,0.));
#967=IFCAXIS2PLACEMENT3D(#966,$,$);
#968=IFCDIRECTION((0.,0.,1.));
#969=IFCEXTRUDEDAREASOLID(#965,#967,#968,0.5334000000000001);
#970=IFCSHAPEREPRESENTATION(#11,'Body','SweptSolid',(#969));
#971=IFCSTYLEDITEM(#969,(#409),$);
#972=IFCPRODUCTDEFINITIONSHAPE($,$,(#970));
#978=IFCRELFILLSELEMENT('1B5d62SPXDFBLSStoK$KoL',$,$,$,#941,#962);
#979=IFCCARTESIANPOINT((0.,0.,0.));
#980=IFCDIRECTION((0.,0.,1.));
#981=IFCDIRECTION((1.,0.,0.));
#982=IFCAXIS2PLACEMENT3D(#979,#980,#981);
#983=IFCLOCALPLACEMENT(#961,#982);
#984=IFCOPENINGELEMENT('1$Ww00Dm98cuTS43YO6qLR',$,'Opening - Upper - Ext south 1',$,$,#1004,#993,$,$);
#985=IFCCARTESIANPOINT((0.,0.));
#986=IFCAXIS2PLACEMENT2D(#985,$);
#987=IFCRECTANGLEPROFILEDEF(.AREA.,$,#986,0.60960000000000003,0.23968984000000002);
#988=IFCCARTESIANPOINT((0.,0.,0.));
#989=IFCAXIS2PLACEMENT3D(#988,$,$);
#990=IFCDIRECTION((0.,0.,1.));
#991=IFCEXTRUDEDAREASOLID(#987,#989,#990,0.5334000000000001);
#992=IFCSHAPEREPRESENTATION(#11,'Body','SweptSolid',(#991));
#993=IFCPRODUCTDEFINITIONSHAPE($,$,(#992));
#999=IFCRELVOIDSELEMENT('3y0dBrKET9LQfTuiNIJiPm',$,$,$,#319,#984);
#1000=IFCCARTESIANPOINT((7.3850449999999999,-1.6000000035987227E-07,1.3258799999999999));
#1001=IFCDIRECTION((0.,0.,1.));
#1002=IFCDIRECTION((1.,0.,0.));
#1003=IFCAXIS2PLACEMENT3D(#1000,#1001,#1002);
#1004=IFCLOCALPLACEMENT(#338,#1003);
#1005=IFCWINDOW('1OzaNiEoXCiBXPNEE0PQUW',$,'Upper - Ext south 1',$,$,#1026,#1015,$,0.5334000000000001,0.60960000000000003,$,$,$);
#1006=IFCCARTESIANPOINT((0.,0.));
#1007=IFCAXIS2PLACEMENT2D(#1006,$);
#1008=IFCRECTANGLEPROFILEDEF(.AREA.,$,#1007,0.60960000000000003,0.050000000000000003);
#1009=IFCCARTESIANPOINT((0.,0.,0.));
#1010=IFCAXIS2PLACEMENT3D(#1009,$,$);
#1011=IFCDIRECTION((0.,0.,1.));
#1012=IFCEXTRUDEDAREASOLID(#1008,#1010,#1011,0.5334000000000001);
#1013=IFCSHAPEREPRESENTATION(#11,'Body','SweptSolid',(#1012));
#1014=IFCSTYLEDITEM(#1012,(#409),$);
#1015=IFCPRODUCTDEFINITIONSHAPE($,$,(#1013));
#1021=IFCRELFILLSELEMENT('2gs$Kpskj6VgX44yiO0FOz',$,$,$,#984,#1005);
#1022=IFCCARTESIANPOINT((0.,0.,0.));
#1023=IFCDIRECTION((0.,0.,1.));
#1024=IFCDIRECTION((1.,0.,0.));
#1025=IFCAXIS2PLACEMENT3D(#1022,#1023,#1024);
#1026=IFCLOCALPLACEMENT(#1004,#1025);
#1027=IFCCOVERING('1TMjPULhfAcPPGXHH_U7Cf',$,'Family Room - Hardwood Flooring',$,$,#1050,#1040,$,.FLOORING.);
#1028=IFCCARTESIANPOINT((0.,0.));
#1029=IFCAXIS2PLACEMENT2D(#1028,$);
#1030=IFCRECTANGLEPROFILEDEF(.AREA.,$,#1029,4.8514101600000004,3.6322101600000005);
#1031=IFCCARTESIANPOINT((0.,0.,0.));
#1032=IFCAXIS2PLACEMENT3D(#1031,$,$);
#1033=IFCDIRECTION((0.,0.,1.));
#1034=IFCEXTRUDEDAREASOLID(#1030,#1032,#1033,0.015240000000000002);
#1035=IFCSHAPEREPRESENTATION(#11,'Body','SweptSolid',(#1034));
#1036=IFCSURFACESTYLE($,.BOTH.,(#1037));
#1037=IFCSURFACESTYLESHADING(#1038,0.);
#1038=IFCCOLOURRGB($,0.55000000000000004,0.35999999999999999,0.17999999999999999);
#1039=IFCSTYLEDITEM(#1034,(#1036),$);
#1040=IFCPRODUCTDEFINITIONSHAPE($,$,(#1035));
#1046=IFCCARTESIANPOINT((1.2318949200000002,-1.8161050800000003,0.));
#1047=IFCDIRECTION((0.,0.,1.));
#1048=IFCDIRECTION((1.,0.,0.));
#1049=IFCAXIS2PLACEMENT3D(#1046,#1047,#1048);
#1050=IFCLOCALPLACEMENT($,#1049);
#1051=IFCCOVERING('2_ReXD6TD5Mwp7ed0lQXUQ',$,'Kitchen - Hardwood Flooring',$,$,#1071,#1061,$,.FLOORING.);
#1052=IFCCARTESIANPOINT((0.,0.));
#1053=IFCAXIS2PLACEMENT2D(#1052,$);
#1054=IFCRECTANGLEPROFILEDEF(.AREA.,$,#1053,4.8514101600000004,4.2418101600000009);
#1055=IFCCARTESIANPOINT((0.,0.,0.));
#1056=IFCAXIS2PLACEMENT3D(#1055,$,$);
#1057=IFCDIRECTION((0.,0.,1.));
#1058=IFCEXTRUDEDAREASOLID(#1054,#1056,#1057,0.015240000000000002);
#1059=IFCSHAPEREPRESENTATION(#11,'Body','SweptSolid',(#1058));
#1060=IFCSTYLEDITEM(#1058,(#1036),$);
#1061=IFCPRODUCTDEFINITIONSHAPE($,$,(#1059));
#1067=IFCCARTESIANPOINT((-7.0230949200000001,-1.5113050800000003,0.));
#1068=IFCDIRECTION((0.,0.,1.));
#1069=IFCDIRECTION((1.,0.,0.));
#1070=IFCAXIS2PLACEMENT3D(#1067,#1068,#1069);
#1071=IFCLOCALPLACEMENT($,#1070);
#1072=IFCCOVERING('0hAt0p0Gn8_ejpm1fPBwfg',$,'Sitting Room - Hardwood Flooring',$,$,#1092,#1082,$,.FLOORING.);
#1073=IFCCARTESIANPOINT((0.,0.));
#1074=IFCAXIS2PLACEMENT2D(#1073,$);
#1075=IFCRECTANGLEPROFILEDEF(.AREA.,$,#1074,4.8514101600000004,4.902189840000001);
#1076=IFCCARTESIANPOINT((0.,0.,0.));
#1077=IFCAXIS2PLACEMENT3D(#1076,$,$);
#1078=IFCDIRECTION((0.,0.,1.));
#1079=IFCEXTRUDEDAREASOLID(#1075,#1077,#1078,0.015240000000000002);
#1080=IFCSHAPEREPRESENTATION(#11,'Body','SweptSolid',(#1079));
#1081=IFCSTYLEDITEM(#1079,(#1036),$);
#1082=IFCPRODUCTDEFINITIONSHAPE($,$,(#1080));
#1088=IFCCARTESIANPOINT((1.2318949200000002,2.4510949200000005,0.));
#1089=IFCDIRECTION((0.,0.,1.));
#1090=IFCDIRECTION((1.,0.,0.));
#1091=IFCAXIS2PLACEMENT3D(#1088,#1089,#1090);
#1092=IFCLOCALPLACEMENT($,#1091);
#1093=IFCCOVERING('1NGOwZmTfBcxO7ldblKgHd',$,'Dining Room - Hardwood Flooring',$,$,#1113,#1103,$,.FLOORING.);
#1094=IFCCARTESIANPOINT((0.,0.));
#1095=IFCAXIS2PLACEMENT2D(#1094,$);
#1096=IFCRECTANGLEPROFILEDEF(.AREA.,$,#1095,4.8514101600000004,4.2925898400000007);
#1097=IFCCARTESIANPOINT((0.,0.,0.));
#1098=IFCAXIS2PLACEMENT3D(#1097,$,$);
#1099=IFCDIRECTION((0.,0.,1.));
#1100=IFCEXTRUDEDAREASOLID(#1096,#1098,#1099,0.015240000000000002);
#1101=IFCSHAPEREPRESENTATION(#11,'Body','SweptSolid',(#1100));
#1102=IFCSTYLEDITEM(#1100,(#1036),$);
#1103=IFCPRODUCTDEFINITIONSHAPE($,$,(#1101));
#1109=IFCCARTESIANPOINT((-7.0230949200000001,2.7558949200000007,0.));
#1110=IFCDIRECTION((0.,0.,1.));
#1111=IFCDIRECTION((1.,0.,0.));
#1112=IFCAXIS2PLACEMENT3D(#1109,#1110,#1111);
#1113=IFCLOCALPLACEMENT($,#1112);
#1114=IFCCOVERING('34I$X76LD0bA3wMdbu1LQL',$,'Foyer - Hardwood Flooring 0',$,$,#1134,#1124,$,.FLOORING.);
#1115=IFCCARTESIANPOINT((0.,0.));
#1116=IFCAXIS2PLACEMENT2D(#1115,$);
#1117=IFCRECTANGLEPROFILEDEF(.AREA.,$,#1116,3.40357968,1.4019885600000004);
#1118=IFCCARTESIANPOINT((0.,0.,0.));
#1119=IFCAXIS2PLACEMENT3D(#1118,$,$);
#1120=IFCDIRECTION((0.,0.,1.));
#1121=IFCEXTRUDEDAREASOLID(#1117,#1119,#1120,0.015240000000000002);
#1122=IFCSHAPEREPRESENTATION(#11,'Body','SweptSolid',(#1121));
#1123=IFCSTYLEDITEM(#1121,(#1036),$);
#1124=IFCPRODUCTDEFINITIONSHAPE($,$,(#1122));
#1130=IFCCARTESIANPOINT((-2.8956,-2.9312158800000003,0.));
#1131=IFCDIRECTION((0.,0.,1.));
#1132=IFCDIRECTION((1.,0.,0.));
#1133=IFCAXIS2PLACEMENT3D(#1130,#1131,#1132);
#1134=IFCLOCALPLACEMENT($,#1133);
#1135=IFCCOVERING('05VoSAiLP1SeELGlzlXVHs',$,'Foyer - Hardwood Flooring 1',$,$,#1155,#1145,$,.FLOORING.);
#1136=IFCCARTESIANPOINT((0.,0.));
#1137=IFCAXIS2PLACEMENT2D(#1136,$);
#1138=IFCRECTANGLEPROFILEDEF(.AREA.,$,#1137,3.40357968,3.1993941600000002);
#1139=IFCCARTESIANPOINT((0.,0.,0.));
#1140=IFCAXIS2PLACEMENT3D(#1139,$,$);
#1141=IFCDIRECTION((0.,0.,1.));
#1142=IFCEXTRUDEDAREASOLID(#1138,#1140,#1141,0.015240000000000002);
#1143=IFCSHAPEREPRESENTATION(#11,'Body','SweptSolid',(#1142));
#1144=IFCSTYLEDITEM(#1142,(#1036),$);
#1145=IFCPRODUCTDEFINITIONSHAPE($,$,(#1143));
#1151=IFCCARTESIANPOINT((-2.8956,1.4991130800000001,0.));
#1152=IFCDIRECTION((0.,0.,1.));
#1153=IFCDIRECTION((1.,0.,0.));
#1154=IFCAXIS2PLACEMENT3D(#1151,#1152,#1153);
#1155=IFCLOCALPLACEMENT($,#1154);
#1156=IFCCOVERING('1vj_g62jrEqu71_Nnyrpw2',$,'Foyer - Hardwood Flooring 3',$,$,#1176,#1166,$,.FLOORING.);
#1157=IFCCARTESIANPOINT((0.,0.));
#1158=IFCAXIS2PLACEMENT2D(#1157,$);
#1159=IFCRECTANGLEPROFILEDEF(.AREA.,$,#1158,1.40208,2.1296376000000001);
#1160=IFCCARTESIANPOINT((0.,0.,0.));
#1161=IFCAXIS2PLACEMENT3D(#1160,$,$);
#1162=IFCDIRECTION((0.,0.,1.));
#1163=IFCEXTRUDEDAREASOLID(#1159,#1161,#1162,0.015240000000000002);
#1164=IFCSHAPEREPRESENTATION(#11,'Body','SweptSolid',(#1163));
#1165=IFCSTYLEDITEM(#1163,(#1036),$);
#1166=IFCPRODUCTDEFINITIONSHAPE($,$,(#1164));
#1172=IFCCARTESIANPOINT((-1.8948501600000003,-1.1654028000000001,0.));
#1173=IFCDIRECTION((0.,0.,1.));
#1174=IFCDIRECTION((1.,0.,0.));
#1175=IFCAXIS2PLACEMENT3D(#1172,#1173,#1174);
#1176=IFCLOCALPLACEMENT($,#1175);
#1177=IFCCOVERING('04VVPmmiv88wf7Rd11fGVw',$,'Vestibule - Hardwood Flooring',$,$,#1197,#1187,$,.FLOORING.);
#1178=IFCCARTESIANPOINT((0.,0.));
#1179=IFCAXIS2PLACEMENT2D(#1178,$);
#1180=IFCRECTANGLEPROFILEDEF(.AREA.,$,#1179,3.40357968,1.8033796800000008);
#1181=IFCCARTESIANPOINT((0.,0.,0.));
#1182=IFCAXIS2PLACEMENT3D(#1181,$,$);
#1183=IFCDIRECTION((0.,0.,1.));
#1184=IFCEXTRUDEDAREASOLID(#1180,#1182,#1183,0.015240000000000002);
#1185=IFCSHAPEREPRESENTATION(#11,'Body','SweptSolid',(#1184));
#1186=IFCSTYLEDITEM(#1184,(#1036),$);
#1187=IFCPRODUCTDEFINITIONSHAPE($,$,(#1185));
#1193=IFCCARTESIANPOINT((-2.8956,4.0005000000000006,0.));
#1194=IFCDIRECTION((0.,0.,1.));
#1195=IFCDIRECTION((1.,0.,0.));
#1196=IFCAXIS2PLACEMENT3D(#1193,#1194,#1195);
#1197=IFCLOCALPLACEMENT($,#1196);
#1198=IFCCOVERING('24QY29iAXFTPkzS9GYdmoz',$,'Ext Bath - Tile Flooring',$,$,#1221,#1211,$,.FLOORING.);
#1199=IFCCARTESIANPOINT((0.,0.));
#1200=IFCAXIS2PLACEMENT2D(#1199,$);
#1201=IFCRECTANGLEPROFILEDEF(.AREA.,$,#1200,1.6637203199999995,3.7947600000000001);
#1202=IFCCARTESIANPOINT((0.,0.,0.));
#1203=IFCAXIS2PLACEMENT3D(#1202,$,$);
#1204=IFCDIRECTION((0.,0.,1.));
#1205=IFCEXTRUDEDAREASOLID(#1201,#1203,#1204,0.015240000000000002);
#1206=IFCSHAPEREPRESENTATION(#11,'Body','SweptSolid',(#1205));
#1207=IFCSURFACESTYLE($,.BOTH.,(#1208));
#1208=IFCSURFACESTYLESHADING(#1209,0.);
#1209=IFCCOLOURRGB($,0.84999999999999998,0.83999999999999997,0.80000000000000004);
#1210=IFCSTYLEDITEM(#1205,(#1207),$);
#1211=IFCPRODUCTDEFINITIONSHAPE($,$,(#1206));
#1217=IFCCARTESIANPOINT((6.1531500000000001,-0.67817999999999989,0.));
#1218=IFCDIRECTION((0.,0.,1.));
#1219=IFCDIRECTION((1.,0.,0.));
#1220=IFCAXIS2PLACEMENT3D(#1217,#1218,#1219);
#1221=IFCLOCALPLACEMENT($,#1220);
#1222=IFCCOVERING('0IRas0M9r3fR4g3KZGITQO',$,'WC - Tile Flooring',$,$,#1242,#1232,$,.FLOORING.);
#1223=IFCCARTESIANPOINT((0.,0.));
#1224=IFCAXIS2PLACEMENT2D(#1223,$);
#1225=IFCRECTANGLEPROFILEDEF(.AREA.,$,#1224,1.6637203199999995,1.0566501600000007);
#1226=IFCCARTESIANPOINT((0.,0.,0.));
#1227=IFCAXIS2PLACEMENT3D(#1226,$,$);
#1228=IFCDIRECTION((0.,0.,1.));
#1229=IFCEXTRUDEDAREASOLID(#1225,#1227,#1228,0.015240000000000002);
#1230=IFCSHAPEREPRESENTATION(#11,'Body','SweptSolid',(#1229));
#1231=IFCSTYLEDITEM(#1229,(#1207),$);
#1232=IFCPRODUCTDEFINITIONSHAPE($,$,(#1230));
#1238=IFCCARTESIANPOINT((6.1531500000000001,-3.1038850800000004,0.));
#1239=IFCDIRECTION((0.,0.,1.));
#1240=IFCDIRECTION((1.,0.,0.));
#1241=IFCAXIS2PLACEMENT3D(#1238,#1239,#1240);
#1242=IFCLOCALPLACEMENT($,#1241);
#1243=IFCCOVERING('3cdunIAx963O25vmgIMVA5',$,'Ext Vestibule - Tile Flooring',$,$,#1263,#1253,$,.FLOORING.);
#1244=IFCCARTESIANPOINT((0.,0.));
#1245=IFCAXIS2PLACEMENT2D(#1244,$);
#1246=IFCRECTANGLEPROFILEDEF(.AREA.,$,#1245,1.66368984,2.5603199999999999);
#1247=IFCCARTESIANPOINT((0.,0.,0.));
#1248=IFCAXIS2PLACEMENT3D(#1247,$,$);
#1249=IFCDIRECTION((0.,0.,1.));
#1250=IFCEXTRUDEDAREASOLID(#1246,#1248,#1249,0.015240000000000002);
#1251=IFCSHAPEREPRESENTATION(#11,'Body','SweptSolid',(#1250));
#1252=IFCSTYLEDITEM(#1250,(#1207),$);
#1253=IFCPRODUCTDEFINITIONSHAPE($,$,(#1251));
#1259=IFCCARTESIANPOINT((4.4894449200000004,-0.060960000000000014,0.));
#1260=IFCDIRECTION((0.,0.,1.));
#1261=IFCDIRECTION((1.,0.,0.));
#1262=IFCAXIS2PLACEMENT3D(#1259,#1260,#1261);
#1263=IFCLOCALPLACEMENT($,#1262);
#1264=IFCCOVERING('2pZbB7QGLAUQFqRLr8kkEl',$,'Ext Laundry - Tile Flooring',$,$,#1284,#1274,$,.FLOORING.);
#1265=IFCCARTESIANPOINT((0.,0.));
#1266=IFCAXIS2PLACEMENT2D(#1265,$);
#1267=IFCRECTANGLEPROFILEDEF(.AREA.,$,#1266,1.66368984,2.2910901600000004);
#1268=IFCCARTESIANPOINT((0.,0.,0.));
#1269=IFCAXIS2PLACEMENT3D(#1268,$,$);
#1270=IFCDIRECTION((0.,0.,1.));
#1271=IFCEXTRUDEDAREASOLID(#1267,#1269,#1270,0.015240000000000002);
#1272=IFCSHAPEREPRESENTATION(#11,'Body','SweptSolid',(#1271));
#1273=IFCSTYLEDITEM(#1271,(#1207),$);
#1274=IFCPRODUCTDEFINITIONSHAPE($,$,(#1272));
#1280=IFCCARTESIANPOINT((4.4894449200000004,-2.4866650800000003,0.));
#1281=IFCDIRECTION((0.,0.,1.));
#1282=IFCDIRECTION((1.,0.,0.));
#1283=IFCAXIS2PLACEMENT3D(#1280,#1281,#1282);
#1284=IFCLOCALPLACEMENT($,#1283);
ENDSEC;
END-ISO-10303-21;
